<?xml version="1.0" encoding="iso-8859-1"?>
<!-- Generator: Adobe Illustrator 16.0.0, SVG Export Plug-In . SVG Version: 6.00 Build 0)  -->
<!DOCTYPE svg PUBLIC "-//W3C//DTD SVG 1.1//EN" "http://www.w3.org/Graphics/SVG/1.1/DTD/svg11.dtd">
<svg version="1.1" id="Capa_1" xmlns="http://www.w3.org/2000/svg" xmlns:xlink="http://www.w3.org/1999/xlink" x="0px" y="0px"
	 width="56.476px" height="56.475px" viewBox="0 0 56.476 56.475" style="enable-background:new 0 0 56.476 56.475;"
	 xml:space="preserve">
<g>
	<g>
		<path d="M41.786,35.191l-0.533-14.704c-0.002-1.116-0.879-1.995-1.957-1.995H17.18c-0.931,0-1.709,0.654-1.904,1.527h2.057
			c1.668,0,3.023,1.356,3.023,3.023l0.346,9.512c0,1.706-1.356,3.062-3.022,3.062h-2.941c0.186,0.859,0.973,1.527,1.914,1.527
			h23.182C40.907,37.147,41.786,36.269,41.786,35.191z M38.439,35.059c-0.521,0-0.967-0.31-1.17-0.754
			c-1.422,1.136-3.219,1.82-5.176,1.82c-4.581,0-8.306-3.728-8.306-8.307c0-4.578,3.725-8.306,8.306-8.306
			c4.58,0,8.309,3.728,8.309,8.306c0,1.769-0.562,3.404-1.504,4.75c0.484,0.188,0.83,0.651,0.83,1.201
			C39.729,34.482,39.15,35.059,38.439,35.059z"/>
		<path d="M32.096,21.646c-3.405,0-6.177,2.771-6.177,6.175c0,3.404,2.771,6.174,6.177,6.174c3.403,0,6.176-2.771,6.176-6.174
			C38.27,24.417,35.499,21.646,32.096,21.646z M32.096,32.175c-1.195,0-2.166-0.631-2.166-0.963c0-0.331,0.971-0.601,2.166-0.601
			c1.194,0,2.166,0.27,2.166,0.601C34.262,31.545,33.29,32.175,32.096,32.175z M35.023,25.917c-0.152,0.127-0.334,0.188-0.516,0.188
			c-0.229,0-0.455-0.097-0.611-0.284c-0.381-0.448-0.936-0.707-1.521-0.707c-0.439,0-0.801-0.357-0.801-0.8
			c0-0.441,0.356-0.8,0.801-0.8c1.062,0,2.061,0.465,2.74,1.276C35.401,25.129,35.359,25.633,35.023,25.917z"/>
		<path d="M25.607,17.271h5.264c0.758,0,1.375-0.616,1.375-1.376c0-0.758-0.617-1.375-1.375-1.375h-5.264
			c-0.76,0-1.375,0.617-1.375,1.375C24.232,16.655,24.849,17.271,25.607,17.271z"/>
		<path d="M43.323,38.675c0.932-0.938,1.443-2.19,1.443-3.554l-0.531-14.675c0-2.725-2.217-4.938-4.938-4.938h-3.633l-1.129-2.016
			c-0.32-0.489-0.993-1.074-2.359-1.074h-7.874c-1.369,0-2.041,0.585-2.394,1.126l-1.051,1.88c-0.605-0.501-1.592-0.693-2.459-0.693
			c-1.119,0-2.281,0.323-2.771,1.031c-1.987,0.661-3.387,2.548-3.387,4.616L11.708,35.19c0,2.726,2.216,4.939,4.938,4.939h23.182
			C41.15,40.131,42.391,39.614,43.323,38.675z M13.411,35.221l0.533-14.812c0-1.46,1.049-2.769,2.496-3.107
			c0.299-0.071,0.531-0.296,0.619-0.584c0.146-0.098,0.604-0.282,1.34-0.282c0.775,0,1.246,0.206,1.363,0.3
			c0.143,0.29,0.438,0.479,0.766,0.479h0.783c0.307,0,0.592-0.166,0.74-0.437l1.312-2.349c0.174-0.267,0.662-0.306,0.938-0.306
			h7.872c0.273,0,0.764,0.04,0.906,0.255l1.344,2.397c0.146,0.271,0.436,0.437,0.742,0.437h4.129c1.783,0,3.234,1.452,3.236,3.268
			l0.531,14.675c0,0.88-0.338,1.704-0.951,2.321c-0.608,0.614-1.422,0.952-2.285,0.952H16.648
			C14.862,38.427,13.411,36.975,13.411,35.221z"/>
		<path d="M18.8,10.808c-0.095-0.674-0.722-1.146-1.388-1.052c-3.047,0.417-5.807,1.79-7.985,3.969
			c-2.185,2.185-3.558,4.951-3.972,8.003c-0.092,0.673,0.382,1.293,1.056,1.386c0.057,0.008,0.11,0.012,0.166,0.012
			c0.604,0,1.135-0.448,1.219-1.065c0.342-2.514,1.473-4.794,3.271-6.594c1.798-1.796,4.07-2.926,6.58-3.271
			C18.421,12.102,18.89,11.481,18.8,10.808z"/>
		<path d="M18.245,6.746c0.672-0.094,1.146-0.714,1.051-1.388c-0.094-0.674-0.719-1.146-1.385-1.052
			C13.35,4.931,9.218,6.985,5.956,10.248c-3.27,3.269-5.326,7.412-5.945,11.979c-0.092,0.673,0.382,1.293,1.056,1.385
			c0.057,0.009,0.11,0.012,0.166,0.012c0.604,0,1.135-0.447,1.219-1.064c0.547-4.03,2.361-7.687,5.246-10.571
			C10.575,9.109,14.222,7.296,18.245,6.746z"/>
		<path d="M37.678,45.669c0.084,0.617,0.609,1.062,1.217,1.062c0.057,0,0.113-0.004,0.17-0.012c3.047-0.417,5.807-1.79,7.982-3.969
			c2.188-2.186,3.561-4.951,3.975-8.003c0.092-0.674-0.384-1.293-1.056-1.386c-0.669-0.09-1.294,0.38-1.386,1.055
			c-0.342,2.514-1.473,4.794-3.271,6.594c-1.795,1.796-4.068,2.927-6.578,3.271C38.057,44.375,37.585,44.997,37.678,45.669z"/>
		<path d="M55.411,32.863c-0.668-0.091-1.293,0.38-1.385,1.055c-0.547,4.03-2.361,7.688-5.246,10.571
			c-2.879,2.879-6.527,4.691-10.549,5.243c-0.674,0.093-1.146,0.712-1.053,1.388c0.086,0.615,0.609,1.062,1.217,1.062
			c0.057,0,0.111-0.004,0.17-0.011c4.559-0.625,8.689-2.681,11.955-5.942c3.27-3.269,5.324-7.411,5.942-11.979
			C56.559,33.574,56.085,32.956,55.411,32.863z"/>
	</g>
</g>
<g>
</g>
<g>
</g>
<g>
</g>
<g>
</g>
<g>
</g>
<g>
</g>
<g>
</g>
<g>
</g>
<g>
</g>
<g>
</g>
<g>
</g>
<g>
</g>
<g>
</g>
<g>
</g>
<g>
</g>
</svg>
